<svg width="29" height="29" viewBox="0 0 29 29" fill="none" xmlns="http://www.w3.org/2000/svg">
<path d="M3.52856 8.56885C3.52856 8.24072 3.6425 7.96273 3.87036 7.73486C4.09823 7.507 4.37622 7.39307 4.70435 7.39307H23.3528C23.6809 7.39307 23.9589 7.507 24.1868 7.73486C24.4146 7.96273 24.5286 8.24072 24.5286 8.56885C24.5286 8.87874 24.4146 9.14762 24.1868 9.37549C23.9589 9.60335 23.6809 9.71729 23.3528 9.71729H4.70435C4.37622 9.71729 4.09823 9.60335 3.87036 9.37549C3.6425 9.14762 3.52856 8.87874 3.52856 8.56885ZM3.52856 14.3931C3.52856 14.0649 3.6425 13.7869 3.87036 13.5591C4.09823 13.3312 4.37622 13.2173 4.70435 13.2173H23.3528C23.6809 13.2173 23.9589 13.3312 24.1868 13.5591C24.4146 13.7869 24.5286 14.0649 24.5286 14.3931C24.5286 14.7212 24.4146 14.9992 24.1868 15.2271C23.9589 15.4549 23.6809 15.5688 23.3528 15.5688H4.70435C4.37622 15.5688 4.09823 15.4549 3.87036 15.2271C3.6425 14.9992 3.52856 14.7212 3.52856 14.3931ZM4.70435 19.0688C4.37622 19.0688 4.09823 19.1828 3.87036 19.4106C3.6425 19.6385 3.52856 19.9074 3.52856 20.2173C3.52856 20.5454 3.6425 20.8234 3.87036 21.0513C4.09823 21.2791 4.37622 21.3931 4.70435 21.3931H23.3528C23.6809 21.3931 23.9589 21.2791 24.1868 21.0513C24.4146 20.8234 24.5286 20.5454 24.5286 20.2173C24.5286 19.9074 24.4146 19.6385 24.1868 19.4106C23.9589 19.1828 23.6809 19.0688 23.3528 19.0688H4.70435Z" fill="white"/>
</svg>
