<svg width="21" height="21" viewBox="0 0 21 21" fill="none" xmlns="http://www.w3.org/2000/svg">
<g clip-path="url(#clip0_1935_263)">
<g clip-path="url(#clip1_1935_263)">
<g clip-path="url(#clip2_1935_263)">
<path fill-rule="evenodd" clip-rule="evenodd" d="M16.8824 13.155H15.0412C14.024 13.155 13.1679 13.9789 13.1679 14.9961V16.8372C13.1679 17.3454 12.7877 17.7578 12.2796 17.7578H8.59725C8.08909 17.7578 7.64445 17.3454 7.64445 16.8372V14.9961C7.64445 13.9789 6.85276 13.155 5.83553 13.155H3.99438C3.48622 13.155 3.04158 12.7426 3.04158 12.2344V8.55208C3.04158 8.04393 3.48622 7.63151 3.99438 7.63151H5.83553C6.85276 7.63151 7.64445 6.8076 7.64445 5.79036V3.94922C7.64445 3.44106 8.08909 3.02865 8.59725 3.02865H12.2796C12.7877 3.02865 13.1679 3.44106 13.1679 3.94922V5.79036C13.1679 6.8076 14.024 7.63151 15.0412 7.63151H16.8824C17.3906 7.63151 17.7707 8.04393 17.7707 8.55208V12.2344C17.7707 12.7426 17.3906 13.155 16.8824 13.155ZM15.0091 4.86979V3.02865C15.0091 2.01141 14.2173 1.1875 13.2001 1.1875H7.67667C6.65944 1.1875 5.80331 2.01141 5.80331 3.02865V4.86979C5.80331 5.37795 5.42311 5.79036 4.91496 5.79036H3.07381C2.05657 5.79036 1.20044 6.61428 1.20044 7.63151V13.1558C1.20044 14.1721 2.04001 14.9961 3.05632 14.997L4.89101 14.9979C5.39917 14.9979 5.80331 15.4103 5.80331 15.9185V17.7578C5.80331 18.7751 6.65944 19.599 7.67667 19.599H13.2001C14.2173 19.599 15.0091 18.7751 15.0091 17.7578V15.9166C15.0091 15.4085 15.4536 14.9961 15.9618 14.9961H17.803C18.8202 14.9961 19.6119 14.1721 19.6119 13.155V7.63151C19.6119 6.61428 18.8202 5.79036 17.803 5.79036H15.9618C15.4536 5.79036 15.0091 5.37795 15.0091 4.86979Z" fill="white"/>
</g>
</g>
</g>
<defs>
<clipPath id="clip0_1935_263">
<rect width="20" height="20" fill="white" transform="translate(0.0285645 0.393066)"/>
</clipPath>
<clipPath id="clip1_1935_263">
<rect width="20" height="20" fill="white" transform="translate(0.0285645 0.393066)"/>
</clipPath>
<clipPath id="clip2_1935_263">
<rect width="19.1667" height="20" fill="white" transform="translate(0.445312 0.393066)"/>
</clipPath>
</defs>
</svg>
